<?xml version="1.0" encoding="utf-8"?>
<!-- Generator: Adobe Illustrator 24.3.0, SVG Export Plug-In . SVG Version: 6.00 Build 0)  -->
<svg version="1.1" id="Layer_1" xmlns="http://www.w3.org/2000/svg" xmlns:xlink="http://www.w3.org/1999/xlink" x="0px" y="0px"
	 viewBox="0 0 247.7 200" style="enable-background:new 0 0 247.7 200;" xml:space="preserve">
<style type="text/css">
	.st0{fill:#FFFFFF;}
	.st1{fill:url(#SVGID_1_);}
	.st2{fill:url(#SVGID_2_);}
	.st3{fill:url(#SVGID_3_);}
	.st4{fill:url(#SVGID_4_);}
	.st5{fill:url(#SVGID_5_);}
	.st6{fill:url(#SVGID_6_);}
</style>
<g>
	<g transform="matrix(.39126827 0 0 .39106083 156.150964 99.999964)">
		<path class="st0" d="M-82.6-208.2c-9.9-24.2-33.9-50.4-78.9-46.8c-57.4,6.1-75.2,60.2-66.6,92.5c-22.8-15.2-61.7-21.9-95.6,6.7
			c-43.8,43.2-20.4,101.5,3.7,115.5c-26.5-2.4-68.4,15.2-77.7,61.3c-9.9,57.3,34.5,90.6,77.7,90.6h479.1c50,0,77.7-42.5,74.6-82.6
			c-4.9-52.3-53.6-72.4-80.1-68.1c22.2-12.2,51.8-69.4,6.8-114.3c-35.8-33.5-81.4-21.3-97.4-6.7c8.6-28-5.5-85.7-63.5-94.9
			c-4-0.4-7.9-0.7-11.5-0.7C-56.4-255.7-76.3-223.9-82.6-208.2"/>
		
			<radialGradient id="SVGID_1_" cx="-1453.6715" cy="1023.5643" r="1" gradientTransform="matrix(-2.633627e-05 77.2136 79.0182 1.916198e-06 -80965.6562 112239.0156)" gradientUnits="userSpaceOnUse">
			<stop  offset="0" style="stop-color:#F89C30"/>
			<stop  offset="1" style="stop-color:#E92224"/>
		</radialGradient>
		<path class="st1" d="M-315.7-146.8c-25.3,22.5-34.5,73.6,11.1,103.4l181.9,122.8l-88.2-198.8
			C-229.4-166.3-279.9-176.5-315.7-146.8"/>
		
			<radialGradient id="SVGID_2_" cx="-1453.6715" cy="1023.5643" r="1" gradientTransform="matrix(-2.633627e-05 77.2136 79.0182 1.916198e-06 -80965.6562 112239.0156)" gradientUnits="userSpaceOnUse">
			<stop  offset="0" style="stop-color:#E4326E"/>
			<stop  offset="1" style="stop-color:#A01D20"/>
		</radialGradient>
		<path class="st2" d="M-159.1-243.4c-29.6,0.6-74,35.2-54.2,88.1l91.2,211.6L-90-166.3C-82.6-221.6-125.2-247.1-159.1-243.4"/>
		
			<radialGradient id="SVGID_3_" cx="-1453.6715" cy="1023.5643" r="1" gradientTransform="matrix(-2.633627e-05 77.2136 79.0182 1.916198e-06 -80965.6562 112239.0156)" gradientUnits="userSpaceOnUse">
			<stop  offset="0" style="stop-color:#ADA7D2"/>
			<stop  offset="1" style="stop-color:#2A266A"/>
		</radialGradient>
		<path class="st3" d="M-75.8-174.8h17.3c0,0,9.2,0,10.5,4.3c-6.8,5.5-25.3,6.1-22.8,35.3l29,191.5l90.6-212.2
			c18.5-47.4-20.4-86.9-54.9-88.2c-1.6-0.1-3.2-0.2-4.9-0.2C-42-244.3-77.5-222.1-75.8-174.8"/>
		
			<radialGradient id="SVGID_4_" cx="-1453.6715" cy="1023.5643" r="1" gradientTransform="matrix(-2.633627e-05 77.2136 79.0182 1.916198e-06 -80965.6562 112239.0156)" gradientUnits="userSpaceOnUse">
			<stop  offset="0" style="stop-color:#5AD1EC"/>
			<stop  offset="1" style="stop-color:#1F439C"/>
		</radialGradient>
		<path class="st4" d="M45.1-117.6L-40.6,78.8L141.2-44.6c41.9-29.2,35.2-76,11.7-99.1c-9.8-10.9-27.9-19.3-47-19.3
			C83.3-163,59.1-151.2,45.1-117.6"/>
		
			<radialGradient id="SVGID_5_" cx="-1453.6715" cy="1023.5643" r="1" gradientTransform="matrix(-2.633627e-05 77.2136 79.0182 1.916198e-06 -80965.6562 112239.0156)" gradientUnits="userSpaceOnUse">
			<stop  offset="0" style="stop-color:#50BA69"/>
			<stop  offset="1" style="stop-color:#0F7A3D"/>
		</radialGradient>
		<path class="st5" d="M120.9-16.7L-49.9,100.7h210.3c43.1,0,70.9-43.8,58.5-83.9c-8.3-25.2-32.7-45.1-61-45.1
			C146-28.3,133.3-24.8,120.9-16.7"/>
		
			<radialGradient id="SVGID_6_" cx="-1453.6715" cy="1023.5643" r="1" gradientTransform="matrix(-2.633627e-05 77.2136 79.0182 1.916198e-06 -80965.6562 112239.0156)" gradientUnits="userSpaceOnUse">
			<stop  offset="0" style="stop-color:#FCD414"/>
			<stop  offset="1" style="stop-color:#F6871F"/>
		</radialGradient>
		<path class="st6" d="M-320.6,100.7h207.2L-284.2-16.7c-39.5-24.9-83.8-10.3-99.9,31C-397.7,61.7-363.8,100.7-320.6,100.7"/>
	</g>
	<g transform="matrix(.30937572 0 0 .32565619 112.838094 65.052263)">
		<path d="M362.8,404v-30.4c0,0,15.7,12.9,32.6,12.9c8.9,0,13.5-4.7,13.5-12.3c0-11.7-11.6-15.4-23.1-21.2
			c-11.9-6.5-25.4-17.4-25.4-37.4c0-22.2,16.7-37.9,40.1-37.9c16.8,0,26.8,7.2,26.8,7.2v28.9c0,0-13.2-10.7-26.8-10.7
			c-8.8,0-14.2,4.4-14.2,11.7c0,10,10.2,14.3,21.1,19.6c17.5,8.6,27.5,18.3,27.5,38.3c0,21.9-15.2,40.9-40.7,40.9
			C376.5,413.7,362.8,404,362.8,404z"/>
		<path d="M-221.2,354.4h22.7c5.2,0.3,14.5,4.9,14.5,15.7c0,11.3-9.6,15.9-14.8,16.4h-22.4L-221.2,354.4z M-221.5,304.1h18.7
			c6.4,0.3,13.9,5.1,13.9,13.8c0,8.6-5.7,14.3-13.1,15.4h-19.5L-221.5,304.1z M-247.1,283.2v124.2h60.2c14.3,0,31.3-14.3,31.3-33.1
			c0-19.6-12.8-29.2-20.9-33.1c0,0,14.8-8.6,14.1-27.2c-0.7-25-23.7-30.9-31.6-30.9L-247.1,283.2"/>
		<path d="M-364.4,278.1v129.2h26.2v-71.5l78,76.3V283.2h-26.2v69.7L-364.4,278.1z"/>
		<path d="M-150.1,343.8c0.7,39.5,28.9,69.1,65.1,69.1c8.6,0,17.6-1.6,26.9-5.2v-25.5c-7.3,4.5-15.5,6.7-23.5,6.7
			c-21.9,0-42.6-16.4-41.8-46.1c1.5-24.1,21.1-40.8,42.2-40.8c7.7,0,15.7,2.2,23.1,7.2v-24.8c-8.6-3.5-17.1-5.1-25.3-5.1
			C-119.6,279.3-149.4,310-150.1,343.8"/>
		<path d="M20.6,336.1l78,76.6V283.2H72.4v70l-78.1-75.1V408h26.2V336.1z"/>
		<path d="M109.4,282.3h68.3v21.6h-42v30.3h42v21h-42.2V387h42v21.4h-68.1L109.4,282.3z"/>
		<path d="M185.3,282.6l60,131.8l25.6-57.3l26.1,57.3l58.7-131.3H327l-32.2,73.9l-11.3-28.1l20.5-45.8h-25.6l-6.9,15.9l-6.6-16.3
			H237l21.2,46.6l-12.1,27.7l-33.1-74.3L185.3,282.6z"/>
	</g>
</g>
</svg>
