<?xml version="1.0" encoding="utf-8"?>
<!-- Generator: Adobe Illustrator 24.3.0, SVG Export Plug-In . SVG Version: 6.00 Build 0)  -->
<svg version="1.1" id="Layer_1" xmlns="http://www.w3.org/2000/svg" xmlns:xlink="http://www.w3.org/1999/xlink" x="0px" y="0px"
	 viewBox="0 0 256 256" style="enable-background:new 0 0 256 256;" xml:space="preserve">
<style type="text/css">
	.st0{fill:#898C27;}
	.st1{fill:#F2F2F2;}
	.st2{fill:none;}
	.st3{font-family:'MicrosoftSansSerif';}
	.st4{font-size:31px;}
</style>
<g>
	<rect class="st0" width="256" height="256"/>
</g>
<path class="st1" d="M175.48,103.96c0-11.7-9.48-21.19-21.19-21.2c-1.43,0-2.85,0.14-4.24,0.43V48.86H99.19v67.81h38.14
	c6.72,8.9,19.19,11.07,28.52,4.96l15,15l5.98-5.98l-15-15C174.18,112.2,175.45,108.13,175.48,103.96z M107.67,108.19V57.33h33.91V87
	c-1.61,1.2-3.03,2.63-4.24,4.24l0,0h-25.43v16.95H107.67z M120.39,108.19v-8.48h8.48v8.48H120.39z M141.58,103.96
	c0-7.02,5.69-12.71,12.71-12.71c7.02,0,12.71,5.69,12.71,12.71c0,7.02-5.69,12.71-12.71,12.71
	C147.27,116.67,141.58,110.98,141.58,103.96z"/>
<rect x="111.91" y="78.53" class="st1" width="8.48" height="8.48"/>
<rect x="128.86" y="78.53" class="st1" width="8.48" height="8.48"/>
<rect x="111.91" y="65.81" class="st1" width="8.48" height="8.48"/>
<rect x="128.86" y="65.81" class="st1" width="8.48" height="8.48"/>
<rect x="25.63" y="162.91" class="st2" width="224.37" height="83.14"/>
<text transform="matrix(1 0 0 1 25.6309 185.0996)" class="st1 st3 st4">Pass to the city</text>
</svg>
