<?xml version="1.0" encoding="utf-8"?>
<!-- Generator: Adobe Illustrator 24.3.0, SVG Export Plug-In . SVG Version: 6.00 Build 0)  -->
<svg version="1.1" id="Layer_1" xmlns="http://www.w3.org/2000/svg" xmlns:xlink="http://www.w3.org/1999/xlink" x="0px" y="0px"
	 viewBox="0 0 67.6 67.57" style="enable-background:new 0 0 67.6 67.57;" xml:space="preserve">
<style type="text/css">
	.st0{fill:#F2F2F2;}
</style>
<g>
	<path class="st0" d="M43.08,24.52c0.5,0.5,1.25,0.75,1.75,0.75s1.25-0.25,1.75-0.75L60.1,11.01c1-1,1-2.5,0-3.5s-2.5-1-3.5,0
		L43.08,21.02C42.08,22.02,42.08,23.52,43.08,24.52z"/>
	<path class="st0" d="M66.85,17.77c1-1,1-2.5,0-3.5s-2.5-1-3.5,0L51.09,26.53c-3.25,3.25-6.26,5-9.26,5c-0.5,0-1.25,0-1.75,0.25
		l-4.25-4.25c0-0.5,0.25-1.25,0.25-1.75c0.25-2.75,2-6.01,5-9.26L53.34,4.25c1-1,1-2.5,0-3.5c-1-1-2.5-1-3.5,0L37.57,13.01
		c-3.25,3.25-5.26,6.76-6.26,10.01L9.55,1.25c-1-1-2.5-1-3.5,0c-7.26,7.26-7.26,19.27,0,26.78L26.81,48.8c0.75,0.75,1.75,1,2.75,0.5
		c2.75-1.25,6.01-0.5,8.01,2l10.26,12.76c1.5,2,3.75,3,6.26,3.25c0.25,0,0.25,0,0.5,0c2.25,0,4.5-1,6.26-2.5
		c1.75-1.75,2.5-3.75,2.5-6.26c0-2.5-1-4.5-2.5-6.26L44.58,36.03c3.25-0.75,6.76-2.75,10.01-6.26L66.85,17.77z"/>
	<path class="st0" d="M3.29,53.05c-1.75,1.5-3,3.5-3.25,5.76s0.75,4.5,2.25,6.26s3.5,2.5,5.76,2.5c0.25,0,0.5,0,0.5,0
		c2.25-0.25,4.5-1.25,5.76-3l9.26-11.51l-9.01-9.01L3.29,53.05z"/>
</g>
</svg>
