<?xml version="1.0" encoding="utf-8"?>
<!-- Generator: Adobe Illustrator 24.3.0, SVG Export Plug-In . SVG Version: 6.00 Build 0)  -->
<svg version="1.1" id="Layer_1" xmlns="http://www.w3.org/2000/svg" xmlns:xlink="http://www.w3.org/1999/xlink" x="0px" y="0px"
	 viewBox="0 0 56.76 85.49" style="enable-background:new 0 0 56.76 85.49;" xml:space="preserve">
<style type="text/css">
	.st0{fill:#F2F2F2;}
</style>
<g id="Train">
	<path class="st0" d="M56.76,64.3V10.43C56.75,4.67,52.08,0.01,46.32,0H10.44C4.68,0.01,0.01,4.67,0,10.43V64.3
		c0,1.79,1.45,3.23,3.23,3.23c0,0,0,0,0,0H8.3L0.46,80.6c-0.92,1.53-0.42,3.52,1.11,4.44c1.53,0.92,3.52,0.42,4.44-1.11l0,0
		l9.83-16.39h25.07l9.83,16.39c0.92,1.53,2.9,2.03,4.44,1.11c1.53-0.92,2.03-2.9,1.11-4.44l0,0l-7.84-13.07h5.07
		C55.31,67.53,56.75,66.08,56.76,64.3C56.76,64.3,56.76,64.3,56.76,64.3z M14.01,58.91c-2.98,0-5.39-2.41-5.39-5.39
		s2.41-5.39,5.39-5.39s5.39,2.41,5.39,5.39C19.4,56.5,16.99,58.91,14.01,58.91C14.01,58.91,14.01,58.91,14.01,58.91z M42.75,58.91
		c-2.98,0-5.39-2.41-5.39-5.39s2.41-5.39,5.39-5.39c2.98,0,5.39,2.41,5.39,5.39C48.14,56.5,45.72,58.91,42.75,58.91
		C42.75,58.91,42.75,58.91,42.75,58.91L42.75,58.91z M50.29,39.51H6.47V17.24h43.82V39.51z"/>
</g>
</svg>
